<?xml version="1.0" standalone="no"?>
<!DOCTYPE svg PUBLIC "-//W3C//DTD SVG 20010904//EN"
 "http://www.w3.org/TR/2001/REC-SVG-20010904/DTD/svg10.dtd">
<svg version="1.0" xmlns="http://www.w3.org/2000/svg"
 width="260.000000pt" height="260.000000pt" viewBox="0 0 260.000000 260.000000"
 preserveAspectRatio="xMidYMid meet">
<metadata>
Created by potrace 1.14, written by Peter Selinger 2001-2017
</metadata>
<g transform="translate(0.000000,260.000000) scale(0.100000,-0.100000)"
fill="#000000" stroke="none">
<path d="M0 1300 l0 -1300 1300 0 1300 0 0 1300 0 1300 -1300 0 -1300 0 0
-1300z m1047 523 c19 -9 45 -32 58 -52 21 -32 141 -335 225 -566 18 -49 36
-94 40 -98 3 -4 24 18 45 50 66 100 406 556 449 602 53 56 106 81 176 81 74 0
119 -25 147 -81 19 -37 30 -114 73 -499 28 -250 53 -474 56 -497 l6 -43 -175
0 -174 0 -6 42 c-3 23 -15 157 -27 297 -31 369 -18 341 -102 219 -147 -214
-342 -484 -371 -515 -45 -48 -101 -66 -191 -61 -80 4 -111 21 -141 78 -19 37
-205 567 -205 585 0 35 -20 10 -49 -62 -17 -43 -82 -192 -144 -330 l-112 -253
-173 0 -172 0 18 37 c10 21 115 244 233 497 227 486 253 531 334 567 50 23
136 24 182 2z"/>
</g>
</svg>
